<svg width="3170" height="772" viewBox="0 0 3170 772" fill="none" xmlns="http://www.w3.org/2000/svg">
<g clip-path="url(#clip0_640_93621)">
<path fill-rule="evenodd" clip-rule="evenodd" d="M459.17 98.2178C472.138 98.2178 484.866 98.6981 497.594 99.4185C505.279 121.753 541.782 238.466 499.995 359.503C483.425 407.773 433.954 499.031 366.471 561.23C300.43 622.469 217.337 659.452 192.842 669.538C76.128 612.382 0 518.963 0 413.056C0 368.388 13.6886 325.881 38.1841 287.217C62.1992 253.356 95.3401 220.935 135.926 189.475C218.778 133.28 333.09 98.2178 459.17 98.2178Z" fill="#4AB23F"/>
<path fill-rule="evenodd" clip-rule="evenodd" d="M92.2148 771.607C92.2148 771.607 272.328 721.895 401.77 615.748C531.212 509.601 606.379 367.912 633.036 198.365C643.363 132.083 641.682 69.4038 642.642 0H727.896C727.896 0 736.541 178.913 685.869 335.492C635.197 492.07 500.713 596.056 467.572 623.914C434.431 651.771 337.65 703.164 248.794 735.824C159.938 768.725 92.2148 771.607 92.2148 771.607Z" fill="#C8D91C"/>
<path fill-rule="evenodd" clip-rule="evenodd" d="M1051.39 163.07H1151.53C1171.46 163.07 1186.11 164.031 1195.96 165.712C1205.81 167.393 1214.45 171.236 1222.14 176.759C1229.82 182.283 1236.31 189.727 1241.35 198.853C1246.39 207.979 1249.03 218.545 1249.03 230.073C1249.03 242.561 1245.91 253.848 1239.67 264.414C1233.42 274.741 1224.78 282.666 1213.97 287.709C1229.1 292.512 1240.87 300.437 1249.03 311.964C1257.2 323.492 1261.28 336.7 1261.28 352.31C1261.28 364.558 1258.64 376.325 1253.36 387.612C1248.07 399.139 1240.87 408.265 1231.74 415.23C1222.62 421.954 1211.33 426.277 1197.88 427.958C1189.48 428.918 1169.06 429.398 1136.88 429.639H1051.63V163.07H1051.39ZM1102.06 207.498V268.977H1135.2C1154.89 268.977 1167.14 268.737 1171.94 268.017C1180.59 267.056 1187.31 263.694 1192.36 258.411C1197.4 253.127 1199.8 246.163 1199.8 237.758C1199.8 229.592 1197.64 222.868 1193.32 217.825C1189 212.782 1182.75 209.66 1174.35 208.459C1169.3 207.739 1154.89 207.498 1131.12 207.498H1102.06ZM1102.06 313.165V384.49H1148.89C1167.14 384.49 1178.67 384.01 1183.47 382.809C1190.92 381.368 1197.16 377.766 1201.72 372.242C1206.53 366.479 1208.93 359.034 1208.93 349.668C1208.93 341.503 1207.01 334.779 1203.4 329.255C1199.8 323.732 1194.52 319.649 1187.55 317.008C1180.59 314.366 1165.7 313.165 1142.65 313.165H1102.06ZM1303.79 429.639V163.07H1384.72C1415.46 163.07 1435.39 164.271 1444.76 167.153C1459.17 171.236 1471.17 179.881 1480.78 193.33C1490.39 206.778 1495.19 224.069 1495.19 245.202C1495.19 261.533 1492.31 275.221 1486.78 286.508C1481.26 297.555 1474.06 306.441 1465.65 312.685C1457 318.929 1448.36 323.251 1439.47 325.173C1427.47 327.814 1409.93 329.015 1387.12 329.015H1354.46V429.398H1303.79V429.639ZM1354.46 208.219V284.107H1382.08C1402.01 284.107 1415.22 282.666 1421.94 279.784C1428.67 276.902 1433.95 272.58 1437.79 266.576C1441.63 260.572 1443.56 253.848 1443.56 245.683C1443.56 235.836 1440.91 227.911 1435.63 221.667C1430.35 215.423 1423.62 211.341 1415.46 209.66C1409.45 208.459 1397.45 207.979 1379.2 207.979H1354.46V208.219ZM1626.79 163.07H1677.46V331.897C1677.46 353.991 1675.54 371.042 1671.94 382.809C1667.14 398.419 1658.25 410.667 1645.28 420.273C1632.56 429.639 1615.5 434.442 1594.37 434.442C1569.64 434.442 1550.66 427.237 1537.46 412.348C1524.01 397.698 1517.52 376.085 1517.28 347.747L1565.07 341.743C1565.55 356.873 1567.71 367.68 1571.32 373.923C1576.84 383.53 1585.01 388.333 1596.05 388.333C1607.1 388.333 1615.02 384.97 1619.83 378.006C1624.39 371.282 1626.79 356.873 1626.79 335.499V163.07ZM1718.05 343.184L1767.28 337.901C1770.16 355.432 1776.17 368.4 1785.29 376.565C1794.42 384.73 1806.43 388.813 1821.79 388.813C1837.88 388.813 1850.13 385.211 1858.54 377.766C1866.7 370.561 1870.79 361.916 1870.79 352.07C1870.79 345.826 1869.1 340.302 1865.5 335.98C1862.14 331.657 1855.9 327.814 1847.49 324.452C1841.73 322.291 1828.28 318.448 1807.15 312.685C1780.25 305.48 1761.28 296.595 1750.23 286.268C1734.86 271.619 1727.17 253.608 1727.17 232.474C1727.17 218.786 1730.78 206.058 1737.98 194.29C1745.19 182.523 1755.51 173.397 1769.2 167.153C1782.89 160.909 1798.98 157.787 1818.43 157.787C1849.65 157.787 1873.43 165.232 1889.04 179.881C1904.89 194.77 1913.05 214.463 1914.01 239.198L1863.34 241.12C1861.18 227.431 1856.62 217.585 1849.65 211.581C1842.69 205.577 1831.88 202.455 1817.95 202.455C1803.3 202.455 1792.02 205.577 1783.85 212.061C1778.57 216.144 1775.93 221.667 1775.93 228.632C1775.93 234.876 1778.33 240.399 1783.37 244.722C1789.61 250.486 1805.22 256.489 1829.72 262.733C1854.22 268.977 1872.47 275.221 1883.99 281.945C1895.76 288.67 1904.89 297.555 1911.61 309.083C1918.34 320.61 1921.7 334.779 1921.7 351.589C1921.7 366.959 1917.62 381.128 1909.69 394.577C1901.77 408.025 1890.48 417.871 1875.83 424.355C1861.18 430.839 1843.17 434.202 1821.31 434.202C1789.61 434.202 1765.36 426.517 1748.55 410.907C1731.5 395.537 1721.41 372.963 1718.05 343.184Z" fill="#4AB23F"/>
<path fill-rule="evenodd" clip-rule="evenodd" d="M1046.09 701.479V495.669H1085.23V586.926L1164.24 495.669H1216.84L1143.83 575.879L1220.68 701.479H1170.25L1116.93 604.938L1085.47 639.28V701.479H1046.09ZM1321.54 654.169L1358.53 660.893C1353.72 675.302 1346.28 686.349 1335.95 693.794C1325.63 701.239 1312.9 705.081 1297.53 705.081C1273.27 705.081 1255.02 696.676 1243.49 679.625C1234.37 665.936 1229.57 648.886 1229.57 628.233C1229.57 603.497 1235.57 584.045 1247.82 570.116C1259.82 556.187 1275.19 548.983 1293.93 548.983C1314.82 548.983 1331.15 556.427 1343.16 571.076C1355.16 585.726 1360.93 608.3 1360.45 638.559H1267.75C1267.99 650.326 1270.87 659.452 1276.64 665.936C1282.4 672.42 1289.36 675.783 1297.77 675.783C1303.53 675.783 1308.34 674.101 1312.42 670.739C1316.5 667.137 1319.38 661.614 1321.54 654.169ZM1323.7 614.304C1323.46 602.776 1320.58 594.131 1315.54 588.127C1310.26 582.123 1303.77 579.242 1296.33 579.242C1288.16 579.242 1281.68 582.364 1276.4 588.608C1271.11 594.851 1268.47 603.497 1268.71 614.304H1323.7ZM1454.59 552.104V583.324H1429.13V643.842C1429.13 656.09 1429.37 663.295 1429.85 665.216C1430.33 667.137 1431.53 668.818 1433.21 670.259C1434.9 671.46 1437.06 672.18 1439.46 672.18C1442.82 672.18 1447.86 670.979 1454.35 668.338L1457.47 699.077C1448.82 702.92 1439.22 705.081 1428.17 705.081C1421.45 705.081 1415.44 703.88 1410.16 701.479C1404.88 699.077 1400.79 695.955 1398.39 692.113C1395.75 688.27 1394.07 683.227 1393.11 676.743C1392.39 672.18 1391.91 662.814 1391.91 648.886V583.564H1374.86V552.345H1391.91V522.806L1428.89 499.511V552.345H1454.59V552.104ZM1561.7 654.169L1598.68 660.893C1593.88 675.302 1586.43 686.349 1576.1 693.794C1565.78 701.239 1553.05 705.081 1537.68 705.081C1513.42 705.081 1495.17 696.676 1483.65 679.625C1474.52 665.936 1469.72 648.886 1469.72 628.233C1469.72 603.497 1475.72 584.045 1487.97 570.116C1499.98 556.187 1515.35 548.983 1534.08 548.983C1554.97 548.983 1571.3 556.427 1583.31 571.076C1595.32 585.726 1601.08 608.3 1600.6 638.559H1507.9C1508.14 650.326 1511.02 659.452 1516.79 665.936C1522.55 672.42 1529.51 675.783 1537.92 675.783C1543.68 675.783 1548.49 674.101 1552.57 670.739C1556.65 667.137 1559.53 661.614 1561.7 654.169ZM1563.86 614.304C1563.62 602.776 1560.73 594.131 1555.45 588.127C1550.17 582.123 1543.68 579.242 1536.24 579.242C1528.07 579.242 1521.59 582.364 1516.31 588.608C1511.02 594.851 1508.38 603.497 1508.62 614.304H1563.86ZM1758.38 701.479H1721.4V625.351C1721.4 609.261 1720.68 598.934 1718.99 594.131C1717.31 589.328 1714.91 585.726 1711.31 583.084C1707.71 580.442 1703.38 579.242 1698.34 579.242C1691.86 579.242 1686.09 581.163 1680.81 584.765C1675.53 588.608 1672.16 593.411 1670.24 599.654C1668.32 605.898 1667.36 617.186 1667.36 633.996V701.479H1630.38V552.345H1664.72V574.198C1676.97 557.388 1692.34 549.223 1711.07 549.223C1719.23 549.223 1726.68 550.904 1733.64 554.026C1740.37 557.148 1745.65 561.23 1749.01 566.033C1752.62 570.836 1755.02 576.36 1756.22 582.604C1757.66 588.848 1758.38 597.493 1758.38 609.02V701.479ZM1823.46 598.214L1790.08 591.97C1793.92 577.32 1800.41 566.514 1809.53 559.549C1818.66 552.585 1832.59 548.983 1850.6 548.983C1867.17 548.983 1879.42 551.144 1887.58 555.226C1895.75 559.309 1901.27 564.592 1904.63 571.076C1907.99 577.561 1909.67 589.328 1909.67 606.379L1909.19 652.488C1909.19 665.456 1909.67 675.302 1910.88 681.546C1912.08 687.79 1914.24 694.514 1917.6 701.479H1880.86C1879.9 698.837 1878.7 694.995 1877.25 689.951C1876.77 687.55 1876.29 686.109 1876.05 685.389C1869.81 692.113 1863.09 696.916 1855.88 700.278C1848.68 703.64 1840.99 705.321 1832.83 705.321C1818.42 705.321 1807.13 701.239 1798.72 692.833C1790.32 684.428 1786.24 674.101 1786.24 661.373C1786.24 652.968 1788.16 645.523 1792 638.799C1795.84 632.315 1801.13 627.272 1807.85 623.67C1814.57 620.067 1824.42 617.186 1837.39 614.544C1854.68 611.182 1866.69 607.82 1873.41 604.938V600.855C1873.41 593.17 1871.73 587.647 1868.13 584.525C1864.53 581.163 1857.8 579.722 1848.2 579.722C1841.47 579.722 1836.43 581.163 1832.83 584.045C1828.74 586.206 1825.62 591.009 1823.46 598.214ZM1873.17 630.154C1868.37 631.835 1860.92 633.756 1850.6 636.158C1840.27 638.559 1833.55 640.72 1830.42 643.122C1825.62 646.724 1823.22 651.527 1823.22 657.051C1823.22 662.574 1825.14 667.377 1828.98 671.46C1832.83 675.542 1837.87 677.464 1843.87 677.464C1850.6 677.464 1856.84 675.062 1863.09 670.499C1867.65 666.897 1870.53 662.574 1871.97 657.531C1872.93 654.169 1873.41 647.685 1873.41 638.319V630.154H1873.17ZM1942.58 710.845L1985.08 716.368C1985.8 721.651 1987.48 725.254 1989.89 727.415C1993.49 730.297 1999.01 731.738 2006.46 731.738C2016.06 731.738 2023.51 730.297 2028.31 727.175C2031.67 725.014 2034.07 721.892 2035.75 717.089C2036.95 713.726 2037.44 707.723 2037.44 699.077L2037.68 677.223C2026.63 693.554 2012.46 701.479 1995.65 701.479C1976.92 701.479 1961.79 693.073 1950.98 676.023C1942.34 662.574 1938.01 646.004 1938.01 626.071C1938.01 601.095 1943.78 581.883 1955.06 568.915C1966.35 555.707 1980.52 549.223 1997.33 549.223C2014.62 549.223 2029.03 557.388 2040.32 573.478V552.345H2074.9V686.109C2074.9 703.64 2073.46 716.848 2070.82 725.494C2068.17 734.139 2064.33 741.104 2059.29 745.907C2054.49 750.95 2047.76 754.792 2039.6 757.434C2031.43 760.316 2020.86 761.757 2008.38 761.757C1984.6 761.757 1967.79 757.434 1957.7 748.789C1947.86 740.143 1942.82 729.096 1942.82 715.648C1942.34 714.447 1942.58 712.766 1942.58 710.845ZM1975.72 623.67C1975.72 639.52 1978.6 651.047 1984.36 658.251C1990.13 665.696 1997.33 669.298 2005.74 669.298C2014.86 669.298 2022.31 665.456 2028.55 658.011C2034.79 650.567 2037.92 639.279 2037.92 624.63C2037.92 609.261 2035.03 597.733 2029.03 590.289C2023.03 582.844 2015.58 579.001 2006.46 579.001C1997.57 579.001 1990.37 582.604 1984.6 590.048C1978.6 597.493 1975.72 608.78 1975.72 623.67ZM2138.54 598.214L2105.16 591.97C2109 577.32 2115.48 566.514 2124.61 559.549C2133.74 552.585 2147.66 548.983 2165.68 548.983C2182.25 548.983 2194.49 551.144 2202.66 555.226C2210.82 559.309 2216.35 564.592 2219.71 571.076C2223.07 577.561 2224.75 589.328 2224.75 606.379L2224.27 652.488C2224.27 665.456 2224.75 675.302 2225.95 681.546C2227.16 687.79 2229.32 694.514 2232.68 701.479H2195.94C2194.97 698.837 2193.77 694.995 2192.33 689.951C2191.85 687.55 2191.37 686.109 2191.13 685.389C2184.89 692.113 2178.16 696.916 2170.96 700.278C2163.76 703.64 2156.07 705.321 2147.91 705.321C2133.5 705.321 2122.21 701.239 2113.8 692.833C2105.64 684.428 2101.32 674.101 2101.32 661.373C2101.32 652.968 2103.24 645.523 2107.08 638.799C2110.92 632.315 2116.21 627.272 2122.93 623.67C2129.65 620.067 2139.5 617.186 2152.47 614.544C2169.76 611.182 2181.77 607.82 2188.49 604.938V600.855C2188.49 593.17 2186.81 587.647 2183.21 584.525C2179.61 581.163 2172.88 579.722 2163.27 579.722C2156.55 579.722 2151.51 581.163 2147.91 584.045C2143.82 586.206 2140.94 591.009 2138.54 598.214ZM2188.25 630.154C2183.45 631.835 2176 633.756 2165.68 636.158C2155.35 638.559 2148.63 640.72 2145.5 643.122C2140.7 646.724 2138.3 651.527 2138.3 657.051C2138.3 662.574 2140.22 667.377 2144.06 671.46C2147.9 675.542 2152.95 677.464 2158.95 677.464C2165.68 677.464 2171.92 675.062 2178.16 670.499C2182.73 666.897 2185.61 662.574 2187.05 657.531C2188.01 654.169 2188.49 647.685 2188.49 638.319V630.154H2188.25ZM2260.06 701.479V495.669H2297.04V604.938L2340.51 552.345H2386.14L2338.35 606.859L2389.74 701.479H2349.87L2314.57 634.236L2297.52 653.689V701.479H2260.06ZM2492.52 654.169L2529.51 660.893C2524.7 675.302 2517.26 686.349 2506.93 693.794C2496.6 701.239 2483.88 705.081 2468.51 705.081C2444.25 705.081 2426 696.676 2414.47 679.625C2405.35 665.936 2400.54 648.886 2400.54 628.233C2400.54 603.497 2406.55 584.045 2418.8 570.116C2430.8 556.187 2446.17 548.983 2464.91 548.983C2485.8 548.983 2502.13 556.427 2514.14 571.076C2526.14 585.726 2531.91 608.3 2531.43 638.559H2438.73C2438.97 650.326 2441.85 659.452 2447.61 665.936C2453.38 672.42 2460.34 675.783 2468.75 675.783C2474.51 675.783 2479.31 674.101 2483.4 670.739C2487.72 667.137 2490.6 661.614 2492.52 654.169ZM2494.68 614.304C2494.44 602.776 2491.56 594.131 2486.28 588.127C2481 582.123 2474.51 579.242 2467.07 579.242C2458.9 579.242 2452.42 582.364 2447.13 588.608C2441.85 594.851 2439.21 603.497 2439.45 614.304H2494.68ZM2597.23 701.479H2560.25V552.345H2594.59V573.478C2600.59 563.392 2605.87 556.908 2610.44 553.786C2615.24 550.664 2620.52 549.223 2626.53 549.223C2634.93 549.223 2643.1 551.624 2651.02 556.667L2639.5 591.009C2633.25 586.686 2627.49 584.525 2621.96 584.525C2616.68 584.525 2612.36 585.966 2608.76 589.088C2605.15 592.21 2602.27 597.733 2600.35 605.658C2598.19 613.583 2597.23 630.394 2597.23 655.61V701.479ZM2666.15 531.932V495.429H2703.14V531.932H2666.15ZM2703.14 552.104H2666.15V694.514C2666.15 706.762 2665.67 713.967 2664.95 716.368C2664.23 718.77 2662.55 720.931 2660.15 722.612C2657.75 724.293 2654.62 725.254 2650.78 725.254C2649.34 725.254 2647.9 725.254 2646.46 725.014C2644.78 724.773 2643.1 724.533 2641.42 724.053L2635.17 757.674C2639.98 759.115 2644.78 760.076 2648.86 760.796C2653.18 761.517 2657.03 761.757 2660.87 761.757C2671.2 761.757 2679.6 759.595 2686.32 755.033C2693.05 750.71 2697.37 744.466 2699.77 736.781C2702.17 728.856 2703.38 715.648 2703.38 696.676V552.104H2703.14ZM2769.66 598.214L2736.28 591.97C2740.12 577.32 2746.6 566.514 2755.73 559.549C2764.85 552.585 2778.78 548.983 2796.79 548.983C2813.36 548.983 2825.61 551.144 2833.78 555.226C2841.94 559.309 2847.47 564.592 2850.83 571.076C2854.19 577.561 2855.87 589.328 2855.87 606.379L2855.39 652.488C2855.39 665.456 2855.87 675.302 2857.07 681.546C2858.27 687.79 2860.43 694.514 2863.8 701.479H2827.05C2826.09 698.837 2824.89 694.995 2823.45 689.951C2822.97 687.55 2822.49 686.109 2822.25 685.389C2816.01 692.113 2809.28 696.916 2802.08 700.278C2794.87 703.64 2787.19 705.321 2779.02 705.321C2764.61 705.321 2753.33 701.239 2744.92 692.833C2736.52 684.428 2732.43 674.101 2732.43 661.373C2732.43 652.968 2734.35 645.523 2738.2 638.799C2742.04 632.315 2747.32 627.272 2754.05 623.67C2760.77 620.067 2770.62 617.186 2783.59 614.544C2800.88 611.182 2812.88 607.82 2819.61 604.938V600.855C2819.61 593.17 2817.93 587.647 2814.33 584.525C2810.72 581.163 2804 579.722 2794.39 579.722C2787.67 579.722 2782.63 581.163 2779.02 584.045C2774.94 586.206 2771.82 591.009 2769.66 598.214ZM2819.37 630.154C2814.57 631.835 2807.12 633.756 2796.79 636.158C2786.47 638.559 2779.74 640.72 2776.62 643.122C2771.82 646.724 2769.42 651.527 2769.42 657.051C2769.42 662.574 2771.34 667.377 2775.18 671.46C2779.02 675.542 2784.07 677.464 2790.07 677.464C2796.79 677.464 2803.04 675.062 2809.28 670.499C2813.85 666.897 2816.73 662.574 2818.17 657.531C2819.13 654.169 2819.61 647.685 2819.61 638.319V630.154H2819.37ZM2919.75 598.214L2886.37 591.97C2890.21 577.32 2896.7 566.514 2905.82 559.549C2914.95 552.585 2928.88 548.983 2946.89 548.983C2963.46 548.983 2975.71 551.144 2983.87 555.226C2992.04 559.309 2997.56 564.592 3000.92 571.076C3004.29 577.561 3005.97 589.328 3005.97 606.379L3005.49 652.488C3005.49 665.456 3005.97 675.302 3007.17 681.546C3008.37 687.79 3010.53 694.514 3013.89 701.479H2977.15C2976.19 698.837 2974.99 694.995 2973.55 689.951C2973.07 687.55 2972.59 686.109 2972.34 685.389C2966.1 692.113 2959.38 696.916 2952.17 700.278C2944.97 703.64 2937.28 705.321 2929.12 705.321C2914.71 705.321 2903.42 701.239 2895.02 692.833C2886.61 684.428 2882.53 674.101 2882.53 661.373C2882.53 652.968 2884.45 645.523 2888.29 638.799C2892.13 632.315 2897.42 627.272 2904.14 623.67C2910.87 620.067 2920.71 617.186 2933.68 614.544C2950.97 611.182 2962.98 607.82 2969.7 604.938V600.855C2969.7 593.17 2968.02 587.647 2964.42 584.525C2960.82 581.163 2954.09 579.722 2944.49 579.722C2937.76 579.722 2932.72 581.163 2929.12 584.045C2925.04 586.206 2922.15 591.009 2919.75 598.214ZM2969.46 630.154C2964.66 631.835 2957.22 633.756 2946.89 636.158C2936.56 638.559 2929.84 640.72 2926.72 643.122C2921.91 646.724 2919.51 651.527 2919.51 657.051C2919.51 662.574 2921.43 667.377 2925.28 671.46C2929.12 675.542 2934.16 677.464 2940.16 677.464C2946.89 677.464 2953.13 675.062 2959.38 670.499C2963.94 666.897 2966.82 662.574 2968.26 657.531C2969.22 654.169 2969.7 647.685 2969.7 638.319V630.154H2969.46ZM3169.99 701.479H3133.01V625.351C3133.01 609.261 3132.29 598.934 3130.61 594.131C3128.92 589.328 3126.52 585.726 3122.92 583.084C3119.32 580.442 3115 579.242 3109.95 579.242C3103.47 579.242 3097.7 581.163 3092.42 584.765C3087.14 588.608 3083.78 593.411 3081.85 599.654C3079.93 605.898 3078.97 617.186 3078.97 633.996V701.479H3041.99V552.345H3076.33V574.198C3088.58 557.388 3103.95 549.223 3122.68 549.223C3130.85 549.223 3138.29 550.904 3145.25 554.026C3151.98 557.148 3157.26 561.23 3160.62 566.033C3164.23 570.836 3166.63 576.36 3167.83 582.604C3169.27 588.848 3169.99 597.493 3169.99 609.02V701.479Z" fill="#0074BD"/>
<path fill-rule="evenodd" clip-rule="evenodd" d="M819.865 225.986C828.511 233.431 836.436 241.116 844.121 249.041C848.443 253.604 853.006 258.647 857.569 264.17C896.234 310.28 918.328 363.593 918.328 420.749C918.328 594.619 712.758 735.588 459.158 735.588C431.781 735.588 404.884 733.907 378.707 730.785C416.411 720.218 505.267 692.361 559.061 655.617C628.465 607.827 705.073 530.258 732.45 488.712C759.827 447.166 790.087 391.451 805.216 323.248C818.424 263.21 819.625 232.711 819.865 225.986Z" fill="#0074BD"/>
</g>
<defs>
<clipPath id="clip0_640_93621">
<rect width="3170" height="771.607" fill="white"/>
</clipPath>
</defs>
</svg>
