<svg width="919" height="772" viewBox="0 0 919 772" fill="none" xmlns="http://www.w3.org/2000/svg">
<path fill-rule="evenodd" clip-rule="evenodd" d="M459.17 98.2178C472.138 98.2178 484.866 98.6981 497.594 99.4185C505.279 121.753 541.782 238.466 499.995 359.503C483.425 407.773 433.954 499.031 366.471 561.23C300.43 622.469 217.337 659.452 192.842 669.538C76.128 612.382 0 518.963 0 413.056C0 368.388 13.6886 325.881 38.1841 287.217C62.1992 253.356 95.3401 220.935 135.926 189.475C218.778 133.28 333.09 98.2178 459.17 98.2178Z" fill="#4AB23F"/>
<path fill-rule="evenodd" clip-rule="evenodd" d="M92.2148 771.607C92.2148 771.607 272.328 721.895 401.77 615.748C531.212 509.601 606.379 367.912 633.036 198.365C643.363 132.083 641.682 69.4038 642.642 0H727.896C727.896 0 736.541 178.913 685.869 335.492C635.197 492.07 500.713 596.056 467.572 623.914C434.431 651.771 337.65 703.164 248.794 735.824C159.938 768.725 92.2148 771.607 92.2148 771.607Z" fill="#C8D91C"/>
<path fill-rule="evenodd" clip-rule="evenodd" d="M819.865 225.986C828.511 233.431 836.436 241.116 844.121 249.041C848.443 253.604 853.006 258.647 857.569 264.17C896.234 310.28 918.328 363.593 918.328 420.749C918.328 594.619 712.758 735.588 459.158 735.588C431.781 735.588 404.884 733.907 378.707 730.785C416.411 720.218 505.267 692.361 559.061 655.617C628.465 607.827 705.073 530.258 732.45 488.712C759.827 447.166 790.087 391.451 805.216 323.248C818.424 263.21 819.625 232.711 819.865 225.986Z" fill="#0074BD"/>
</svg>
